<?xml version="1.0" standalone="no"?>
<!DOCTYPE svg PUBLIC "-//W3C//DTD SVG 20010904//EN"
 "http://www.w3.org/TR/2001/REC-SVG-20010904/DTD/svg10.dtd">
<svg version="1.0" xmlns="http://www.w3.org/2000/svg"
 width="512.000000pt" height="512.000000pt" viewBox="0 0 512.000000 512.000000"
 preserveAspectRatio="xMidYMid meet">

<g transform="translate(0.000000,512.000000) scale(0.100000,-0.100000)"
fill="#000000" stroke="none">
<path d="M60 4831 c-14 -27 -14 -1835 0 -1862 7 -12 21 -19 40 -19 19 0 33 7
40 19 7 13 10 312 10 900 l0 881 488 0 487 0 183 -265 183 -265 1739 0 1740 0
0 -1925 0 -1925 -2410 0 -2410 0 0 1123 c0 1076 -1 1125 -18 1140 -24 22 -45
21 -65 -1 -16 -17 -17 -113 -17 -1171 0 -775 3 -1159 10 -1172 11 -19 49 -19
2500 -19 2451 0 2489 0 2500 19 14 27 14 4515 0 4542 -11 19 -49 19 -2500 19
-2451 0 -2489 0 -2500 -19z m4370 -296 l0 -215 -1442 0 -1443 0 -57 83 c-31
45 -97 142 -147 215 l-92 132 1591 0 1590 0 0 -215z"/>
<path d="M478 4509 c-25 -14 -24 -65 1 -79 12 -6 106 -10 235 -10 228 0 246 4
246 50 0 46 -18 50 -248 50 -129 0 -224 -5 -234 -11z"/>
<path d="M1265 3770 c-221 -33 -451 -162 -599 -336 -331 -388 -310 -966 49
-1329 384 -390 1017 -389 1396 2 187 192 281 418 283 678 1 128 -17 247 -41
271 -19 19 -57 18 -74 -2 -10 -13 -10 -29 0 -89 49 -293 -33 -570 -233 -782
-27 -29 -53 -53 -57 -53 -5 0 -9 29 -9 65 0 89 -29 161 -93 232 -53 57 -148
113 -194 113 -30 0 -38 18 -19 38 42 48 60 114 64 247 4 106 8 134 23 153 50
65 67 204 35 300 -27 81 -50 87 -140 37 l-71 -40 -190 -5 c-175 -5 -193 -7
-226 -28 -66 -41 -71 -62 -67 -330 3 -227 4 -239 27 -282 13 -25 29 -52 37
-61 12 -13 5 -18 -59 -37 -40 -12 -93 -37 -119 -57 -88 -65 -147 -188 -148
-305 l-1 -45 -72 76 c-40 42 -92 110 -116 153 -295 518 -15 1161 566 1303 100
24 305 22 403 -5 180 -49 312 -125 434 -251 68 -71 98 -85 124 -59 28 28 13
63 -55 132 -190 193 -414 293 -678 301 -66 2 -147 0 -180 -5z m365 -957 c0
-114 -17 -160 -73 -210 -98 -86 -253 -61 -322 51 -27 45 -30 59 -33 153 l-4
103 216 0 216 0 0 -97z m40 -374 c68 -15 138 -64 175 -123 28 -46 30 -57 33
-161 l4 -111 -88 -41 c-249 -117 -527 -116 -771 4 l-73 35 0 96 c0 114 12 159
57 211 42 50 90 79 145 90 64 13 459 13 518 0z"/>
<path d="M1290 2800 c-24 -24 -25 -32 -4 -76 44 -93 190 -100 244 -11 27 43
25 73 -4 92 -29 19 -54 10 -80 -30 -22 -34 -44 -32 -82 10 -37 40 -47 42 -74
15z"/>
<path d="M2727 3762 c-16 -17 -17 -136 -17 -1510 0 -1479 0 -1492 20 -1512 19
-19 33 -20 473 -20 427 0 455 1 470 18 20 22 22 53 5 70 -9 9 -120 12 -440 12
l-428 0 0 185 0 184 454 3 c443 3 455 4 483 24 15 11 38 36 51 54 21 31 22 43
22 199 0 186 -8 212 -72 251 -32 19 -52 20 -485 20 l-453 0 0 120 0 120 763 0
c743 0 763 1 795 20 64 39 72 65 72 251 0 156 -1 168 -22 199 -13 18 -36 43
-51 54 -28 21 -35 21 -793 24 l-764 3 0 114 0 115 448 0 c498 0 493 -1 539 69
22 32 23 44 23 200 0 194 -8 220 -80 258 -43 23 -45 23 -487 23 l-443 0 0 225
c0 212 -1 225 -19 235 -28 15 -46 12 -64 -8z m1601 -1354 c15 -15 17 -281 2
-309 -10 -19 -29 -19 -765 -19 l-755 0 0 170 0 170 753 0 c572 0 756 -3 765
-12z m-624 -784 c13 -12 16 -41 16 -150 0 -75 -5 -144 -10 -155 -10 -18 -26
-19 -450 -19 l-440 0 0 170 0 170 434 0 c382 0 436 -2 450 -16z"/>
<path d="M2216 3244 c-19 -18 -20 -38 -6 -65 21 -38 90 -14 90 31 0 24 -26 50
-50 50 -10 0 -26 -7 -34 -16z"/>
<path d="M65 2830 c-15 -16 -17 -26 -9 -48 8 -22 15 -27 44 -27 29 0 36 5 44
27 8 22 6 32 -9 48 -10 11 -26 20 -35 20 -9 0 -25 -9 -35 -20z"/>
<path d="M692 1628 c-19 -19 -14 -55 10 -72 20 -14 104 -16 714 -16 664 0 693
1 715 19 20 16 22 23 14 47 l-10 29 -716 3 c-548 2 -718 -1 -727 -10z"/>
<path d="M702 1364 c-31 -21 -26 -64 8 -81 31 -16 1363 -19 1404 -3 37 14 46
58 16 82 -21 17 -58 18 -714 18 -617 0 -694 -2 -714 -16z"/>
<path d="M698 829 c-21 -12 -24 -59 -6 -77 9 -9 183 -12 719 -12 630 0 709 2
723 16 21 21 20 47 -2 67 -17 16 -81 17 -718 17 -456 -1 -705 -4 -716 -11z"/>
<path d="M3798 796 c-14 -31 -5 -53 27 -68 21 -9 28 -8 45 7 39 35 20 85 -32
85 -20 0 -32 -7 -40 -24z"/>
<path d="M4000 801 c-16 -30 -12 -48 12 -65 19 -14 68 -16 334 -16 288 0 312
1 327 18 20 22 22 53 5 70 -9 9 -98 12 -340 12 -313 0 -328 -1 -338 -19z"/>
</g>
</svg>
